<svg width="32" height="32" viewBox="0 0 32 32" fill="none" xmlns="http://www.w3.org/2000/svg">
<g clip-path="url(#clip0_338_3531)">
<path d="M19.9548 18.9038C17.4779 18.1219 18.183 17.4995 20.5468 16.6115C21.679 16.1854 20.9905 15.2867 21.0214 14.5678C21.0353 14.2387 22.3292 14.3043 22.2353 13.0349C22.1692 12.1411 20.2001 10.8674 19.6635 10.324C19.3537 10.0104 20.295 9.15222 19.6321 8.39754C18.727 7.36606 18.5841 5.57137 18.0363 4.56762C18.0363 4.56762 18.4539 3.92974 18.1339 3.56707C15.3734 0.442227 5.07188 0.729164 2.43931 5.32816C-0.515936 10.4909 -0.555403 17.6265 5.58922 21.4708C8.32206 23.1801 4.82174 29.2336 4.82174 29.2336H15.6587C15.6587 28.2 14.4501 24.4922 16.5654 24.6586C18.4033 24.8031 20.654 24.7236 20.4545 22.6479C20.3942 22.0217 20.3233 21.458 20.7606 20.9391C21.198 20.4206 21.831 19.4958 19.9548 18.9038ZM22.4353 17.9294L32.5 19.2478V16.6115L22.4353 17.9294ZM30.612 26.6101L31.6915 24.3268L22.4353 19.3305L30.612 26.6101ZM31.6915 11.5085L30.612 9.22475L22.4353 16.5054L31.6915 11.5085Z" fill="white"/>
</g>
<defs>
<clipPath id="clip0_338_3531">
<rect width="32" height="32" fill="white"/>
</clipPath>
</defs>
</svg>
