<svg width="32" height="32" viewBox="0 0 32 32" fill="none" xmlns="http://www.w3.org/2000/svg">
<g clip-path="url(#clip0_219_2674)">
<g clip-path="url(#clip1_219_2674)">
<path d="M15.9909 4.21824C9.01587 -1.88242 0.14723 3.4778 0.00180337 10.7444C-0.0352563 12.5964 0.499328 14.4003 1.56343 16.0633H8.46066L9.68744 14.0186C10.0437 13.425 10.9057 13.4059 11.2821 13.9977L13.8705 18.0651L17.6435 10.1C17.9726 9.40497 18.9532 9.38291 19.3161 10.0569L22.5503 16.0633H30.4184C36.2468 6.95403 24.7279 -3.42336 15.9909 4.21824Z" fill="white"/>
<path d="M21.1656 17.4451L18.5448 12.5779L14.8387 20.4017C14.5234 21.0673 13.5961 21.1251 13.2007 20.5037L10.5152 16.2838L9.79574 17.4829C9.62631 17.7653 9.32121 17.938 8.99192 17.938H3.04688C3.23324 18.1331 2.24 17.1418 15.3302 30.1642C15.6958 30.528 16.2868 30.5281 16.6525 30.1642C29.5412 17.3422 28.7498 18.1327 28.9358 17.938H21.9909C21.646 17.9381 21.329 17.7487 21.1656 17.4451Z" fill="white"/>
</g>
</g>
<defs>
<clipPath id="clip0_219_2674">
<rect width="32" height="32" fill="white"/>
</clipPath>
<clipPath id="clip1_219_2674">
<rect width="32" height="32" fill="white"/>
</clipPath>
</defs>
</svg>
