<svg width="32" height="32" viewBox="0 0 32 32" fill="none" xmlns="http://www.w3.org/2000/svg">
<path d="M31.2 20.6H30.4V15.195C30.4 14.56 30.145 13.95 29.695 13.5L24.7 8.505C24.25 8.055 23.64 7.8 23.005 7.8H20.8V5.4C20.8 4.075 19.725 3 18.4 3H5.6C4.275 3 3.2 4.075 3.2 5.4V7.8H0.4C0.18 7.8 0 7.98 0 8.2V9C0 9.22 0.18 9.4 0.4 9.4H14C14.22 9.4 14.4 9.58 14.4 9.8V10.6C14.4 10.82 14.22 11 14 11H2C1.78 11 1.6 11.18 1.6 11.4V12.2C1.6 12.42 1.78 12.6 2 12.6H12.4C12.62 12.6 12.8 12.78 12.8 13V13.8C12.8 14.02 12.62 14.2 12.4 14.2H0.4C0.18 14.2 0 14.38 0 14.6V15.4C0 15.62 0.18 15.8 0.4 15.8H10.8C11.02 15.8 11.2 15.98 11.2 16.2V17C11.2 17.22 11.02 17.4 10.8 17.4H3.2V23.8C3.2 26.45 5.35 28.6 8 28.6C10.65 28.6 12.8 26.45 12.8 23.8H19.2C19.2 26.45 21.35 28.6 24 28.6C26.65 28.6 28.8 26.45 28.8 23.8H31.2C31.64 23.8 32 23.44 32 23V21.4C32 20.96 31.64 20.6 31.2 20.6ZM8 26.2C6.675 26.2 5.6 25.125 5.6 23.8C5.6 22.475 6.675 21.4 8 21.4C9.325 21.4 10.4 22.475 10.4 23.8C10.4 25.125 9.325 26.2 8 26.2ZM24 26.2C22.675 26.2 21.6 25.125 21.6 23.8C21.6 22.475 22.675 21.4 24 21.4C25.325 21.4 26.4 22.475 26.4 23.8C26.4 25.125 25.325 26.2 24 26.2ZM28 15.8H20.8V10.2H23.005L28 15.195V15.8Z" fill="white"/>
</svg>
