<svg width="32" height="32" viewBox="0 0 32 32" fill="none" xmlns="http://www.w3.org/2000/svg">
<g clip-path="url(#clip0_219_2696)">
<path d="M6.34903 32H25.6523C26.8009 32 27.7572 31.1215 27.7572 30.0419V6.62855C27.7572 5.54866 26.8009 4.66089 25.6523 4.66089H22.4702V6.44866C22.4748 6.75899 22.23 7.01578 21.92 7.02611H10.0436C9.72729 7.0185 9.47186 6.76496 9.46153 6.44866V4.66089H6.34903C5.20039 4.66089 4.24414 5.54866 4.24414 6.62855V30.0419C4.24414 31.1215 5.20039 32 6.34903 32ZM10.6441 14.0522C10.6441 13.7449 10.8933 13.4957 11.2007 13.4957H14.0528V10.6435C14.0528 10.3362 14.302 10.087 14.6094 10.087H17.392C17.6993 10.087 17.9485 10.3362 17.9485 10.6435V13.4957H20.8007C21.108 13.4957 21.3572 13.7449 21.3572 14.0522V16.8348C21.3572 17.1421 21.108 17.3913 20.8007 17.3913H17.9485V20.2435C17.9485 20.5508 17.6993 20.8 17.392 20.8H14.6094C14.302 20.8 14.0528 20.5508 14.0528 20.2435V17.3913H11.2007C10.8933 17.3913 10.6441 17.1421 10.6441 16.8348V14.0522ZM10.8708 23.6522H21.1306C21.4382 23.6522 21.6871 23.9014 21.6871 24.2087C21.6871 24.5161 21.4382 24.7652 21.1306 24.7652H10.8708C10.5632 24.7652 10.3142 24.5161 10.3142 24.2087C10.3142 23.9014 10.5632 23.6522 10.8708 23.6522ZM8.78381 26.4348H23.2175C23.5251 26.4348 23.774 26.684 23.774 26.9913C23.774 27.2987 23.5251 27.5478 23.2175 27.5478H8.78381C8.47621 27.5478 8.22729 27.2987 8.22729 26.9913C8.22729 26.684 8.47621 26.4348 8.78381 26.4348Z" fill="white"/>
<path d="M21.3568 2.15652H18.7525C18.4905 2.15625 18.2639 1.97337 18.2087 1.71712C17.9935 0.722556 17.0489 1.23676e-06 15.9625 1.23676e-06H15.9557C14.8984 -0.00108572 13.9748 0.714403 13.7117 1.73832C13.6484 1.98424 13.4267 2.15625 13.1726 2.15652H10.5742V5.91304H21.3568V2.15652Z" fill="white"/>
<path d="M15.1646 16.8347V19.6869H16.8341V16.8347C16.8341 16.5274 17.0833 16.2782 17.3906 16.2782H20.2428V14.6086H17.3906C17.0833 14.6086 16.8341 14.3595 16.8341 14.0521V11.2H15.1646V14.0521C15.1646 14.3595 14.9154 14.6086 14.608 14.6086H11.7559V16.2782H14.608C14.9154 16.2782 15.1646 16.5274 15.1646 16.8347Z" fill="white"/>
</g>
<defs>
<clipPath id="clip0_219_2696">
<rect width="32" height="32" fill="white"/>
</clipPath>
</defs>
</svg>
