<svg width="48" height="48" viewBox="0 0 48 48" fill="none" xmlns="http://www.w3.org/2000/svg">
<path d="M44.459 0.000181769H3.54098C2.61258 -0.00926661 1.71835 0.349967 1.0545 0.999058C0.390653 1.64815 0.0114143 2.53408 0 3.46245V44.5454C0.0134785 45.4724 0.393624 46.3563 1.05725 47.0037C1.72087 47.6511 2.61393 48.0093 3.54098 47.9998H44.459C45.3875 48.0072 46.2811 47.6467 46.9446 46.9972C47.6081 46.3477 47.9876 45.462 48 44.5336V3.45065C47.9834 2.525 47.6022 1.64329 46.9391 0.99718C46.2761 0.351069 45.3848 -0.00722341 44.459 0.000181769ZM14.2308 40.9179H7.10557V17.9922H14.2308V40.9179ZM10.6898 14.8683C9.87261 14.869 9.0735 14.6274 8.39362 14.174C7.71374 13.7205 7.18363 13.0756 6.87035 12.3208C6.55707 11.566 6.4747 10.7352 6.63365 9.93362C6.79261 9.13201 7.18575 8.39554 7.76335 7.8174C8.34094 7.23926 9.07703 6.84542 9.87851 6.6857C10.68 6.52598 11.5108 6.60756 12.2659 6.92012C13.021 7.23268 13.6664 7.76217 14.1206 8.44162C14.5747 9.12106 14.817 9.91992 14.817 10.7372C14.816 11.2803 14.7079 11.818 14.4988 12.3193C14.2898 12.8206 13.9839 13.2758 13.5987 13.6588C13.2135 14.0418 12.7566 14.345 12.2541 14.5512C11.7516 14.7574 11.2133 14.8625 10.6702 14.8604L10.6898 14.8683ZM40.918 40.9179H33.7928V29.7639C33.7928 27.1082 33.7456 23.6892 30.0905 23.6892C26.4354 23.6892 25.8138 26.5849 25.8138 29.5908V40.9179H18.7003V17.9922H25.5305V21.1397H25.6249C26.577 19.3377 28.8984 17.4374 32.3646 17.4374C39.5803 17.4217 40.918 22.1705 40.918 28.3278V40.9179Z" fill="white"/>
</svg>
