<svg width="24" height="25" viewBox="0 0 24 25" fill="none" xmlns="http://www.w3.org/2000/svg">
<path d="M18.5588 19.9825C17.5654 17.3255 15.0036 15.4337 12 15.4337C8.99638 15.4337 6.4346 17.3255 5.44117 19.9825M18.5588 19.9825C20.6672 18.1491 22 15.4471 22 12.4337C22 6.91087 17.5228 2.43372 12 2.43372C6.47715 2.43372 2 6.91087 2 12.4337C2 15.4471 3.33285 18.1491 5.44117 19.9825M18.5588 19.9825C16.8031 21.5094 14.5095 22.4337 12 22.4337C9.49052 22.4337 7.19694 21.5094 5.44117 19.9825M15 9.43372C15 11.0906 13.6569 12.4337 12 12.4337C10.3431 12.4337 9 11.0906 9 9.43372C9 7.77686 10.3431 6.43372 12 6.43372C13.6569 6.43372 15 7.77686 15 9.43372Z" stroke="#141718" stroke-width="1.5" stroke-linejoin="round"/>
</svg>
