<svg width="22" height="23" viewBox="0 0 22 23" fill="none" xmlns="http://www.w3.org/2000/svg">
<path d="M17.5588 18.8784C16.5654 16.2214 14.0036 14.3296 11 14.3296C7.99638 14.3296 5.4346 16.2214 4.44117 18.8784M17.5588 18.8784C19.6672 17.045 21 14.343 21 11.3296C21 5.80674 16.5228 1.32959 11 1.32959C5.47715 1.32959 1 5.80674 1 11.3296C1 14.343 2.33285 17.045 4.44117 18.8784M17.5588 18.8784C15.8031 20.4052 13.5095 21.3296 11 21.3296C8.49052 21.3296 6.19694 20.4052 4.44117 18.8784M14 8.32959C14 9.98644 12.6569 11.3296 11 11.3296C9.34315 11.3296 8 9.98644 8 8.32959C8 6.67274 9.34315 5.32959 11 5.32959C12.6569 5.32959 14 6.67274 14 8.32959Z" stroke="white" stroke-width="2" stroke-linejoin="round"/>
</svg>
