<svg width="48" height="40" viewBox="0 0 48 40" fill="none" xmlns="http://www.w3.org/2000/svg">
<path fill-rule="evenodd" clip-rule="evenodd" d="M12.1093 0.537844C20.0239 -0.179281 27.9751 -0.179281 35.8897 0.537844L41.2048 1.01964C42.6444 1.14911 44.005 1.83077 45.0697 2.95596C46.1345 4.08116 46.8422 5.58515 47.0799 7.22824C48.3067 15.6871 48.3067 24.3183 47.0799 32.7744C46.8423 34.4171 46.1349 35.9207 45.0707 37.0459C44.0064 38.171 42.6464 38.8529 41.2072 38.983L35.8921 39.4621C27.9767 40.1793 20.0247 40.1793 12.1093 39.4621L6.79413 38.983C5.35456 38.8535 3.99398 38.1719 2.92922 37.0467C1.86446 35.9215 1.1568 34.4175 0.919011 32.7744C-0.306337 24.3177 -0.306337 15.685 0.919011 7.22824C1.1567 5.58557 1.86401 4.08191 2.92829 2.95676C3.99258 1.83161 5.35261 1.1497 6.79175 1.01964L12.1093 0.537844ZM19.2538 26.7629V13.2397C19.254 13.0946 19.2875 12.9521 19.351 12.8268C19.4144 12.7015 19.5055 12.5978 19.615 12.5263C19.7245 12.4548 19.8484 12.4181 19.9742 12.4198C20.1 12.4215 20.2231 12.4617 20.3311 12.5362L30.1 19.2978C30.2051 19.3708 30.2921 19.474 30.3525 19.5973C30.4129 19.7205 30.4446 19.8597 30.4446 20.0013C30.4446 20.1429 30.4129 20.2821 30.3525 20.4054C30.2921 20.5286 30.2051 20.6318 30.1 20.7048L20.3311 27.4664C20.2231 27.5409 20.1 27.5811 19.9742 27.5828C19.8484 27.5846 19.7245 27.5478 19.615 27.4763C19.5055 27.4048 19.4144 27.3011 19.351 27.1758C19.2875 27.0505 19.254 26.908 19.2538 26.7629Z" fill="white"/>
</svg>
